<?xml version="1.0" encoding="UTF-8"?>
<svg version="1.1" xmlns="http://www.w3.org/2000/svg" width="266" height="248">
<path d="M0 0 C87.78 0 175.56 0 266 0 C266 81.84 266 163.68 266 248 C178.22 248 90.44 248 0 248 C0 166.16 0 84.32 0 0 Z " fill="#000000" transform="translate(0,0)"/>
<path d="M0 0 C11.3025 -0.020625 22.605 -0.04125 34.25 -0.0625 C37.81586914 -0.071604 41.38173828 -0.08070801 45.05566406 -0.09008789 C49.41748047 -0.09460449 49.41748047 -0.09460449 51.46087646 -0.09544373 C52.88487053 -0.09697706 54.30886331 -0.10048948 55.73284912 -0.10557556 C57.89256031 -0.11290236 60.0521923 -0.11390574 62.21191406 -0.11352539 C64.03725677 -0.11685631 64.03725677 -0.11685631 65.8994751 -0.12025452 C68.47196667 -0.02047988 70.55904871 0.23645225 73 1 C73 1.66 73 2.32 73 3 C74.03125 3.226875 75.0625 3.45375 76.125 3.6875 C81.63760631 5.34017272 84.76707749 7.92016343 87.671875 12.8203125 C90.97842348 19.22871836 93.1226462 24.56938666 93.1328125 31.828125 C93.13410156 32.70984375 93.13539062 33.5915625 93.13671875 34.5 C93.13285156 35.4075 93.12898438 36.315 93.125 37.25 C93.12886719 38.17296875 93.13273437 39.0959375 93.13671875 40.046875 C93.13542969 40.9234375 93.13414063 41.8 93.1328125 42.703125 C93.13168457 43.50395508 93.13055664 44.30478516 93.12939453 45.12988281 C93 47 93 47 92 48 C91.75248024 49.64317336 91.52742439 51.28974631 91.3125 52.9375 C89.65737083 62.19662839 84.87635866 69.27604927 77.6640625 75.24609375 C69.03330211 80.92822193 59.15274445 82.58610006 49.08203125 83.640625 C45.96711411 83.8975039 45.96711411 83.8975039 43 85 C41.60928794 89.17213619 41.61327927 93.3678057 41.39453125 97.7265625 C41.10159485 102.89840515 41.10159485 102.89840515 40 104 C26.8 104 13.6 104 0 104 C0 69.68 0 35.36 0 0 Z " fill="#F9F9F9" transform="translate(23,40)"/>
<path d="M0 0 C19.8 0 39.6 0 60 0 C62.24966005 8.99864022 62.24966005 8.99864022 62.77441406 12.30004883 C62.95567337 13.42283989 62.95567337 13.42283989 63.14059448 14.5683136 C63.26435455 15.35659042 63.38811462 16.14486725 63.515625 16.95703125 C63.72023849 18.23086922 63.72023849 18.23086922 63.9289856 19.53044128 C64.22089767 21.34892499 64.51135632 23.16764252 64.80047607 24.98657227 C65.56464694 29.79052491 66.34123682 34.59246959 67.1171875 39.39453125 C67.27381866 40.36512482 67.43044983 41.33571838 67.59182739 42.33572388 C69.0149445 51.13531759 70.4822469 59.92701069 71.98425293 68.71347046 C72.24373622 70.23188543 72.50228861 71.75045979 72.7598877 73.26919556 C73.11604752 75.36740485 73.47541411 77.46503664 73.8359375 79.5625 C74.03751465 80.73941406 74.2390918 81.91632813 74.44677734 83.12890625 C74.9456172 86.05521604 74.9456172 86.05521604 76 89 C76 92.3 76 95.6 76 99 C58.84 99 41.68 99 24 99 C24 82.125 24 82.125 25 76.0625 C25.185625 74.89847656 25.37125 73.73445313 25.5625 72.53515625 C25.706875 71.69855469 25.85125 70.86195313 26 70 C29.3 70 32.6 70 36 70 C35.49831553 61.43175742 34.66687155 53.01265723 33.4765625 44.51171875 C32.86667518 40.01754907 32.40385543 35.5168041 32 31 C30.68 31 29.36 31 28 31 C26.20948879 39.68182135 24.61668983 48.39840639 23.0625 57.125 C22.93027039 57.86635193 22.79804077 58.60770386 22.6618042 59.371521 C20.32505405 72.54129601 18.5144778 85.70625044 17 99 C6.11 99 -4.78 99 -16 99 C-16 85.52380952 -16 85.52380952 -14.71484375 79.90234375 C-14.43471436 78.62681641 -14.15458496 77.35128906 -13.8659668 76.03710938 C-13.71477386 75.37090576 -13.56358093 74.70470215 -13.4078064 74.01831055 C-9.69753581 57.6026925 -6.93175025 41.06381602 -4.31030273 24.44506836 C-4.17017761 23.55879257 -4.03005249 22.67251678 -3.88568115 21.75938416 C-3.62636378 20.1134961 -3.36927388 18.46725458 -3.11505127 16.8205719 C-2.22996658 11.16605356 -1.12528612 5.62643061 0 0 Z " fill="#F7F7F7" transform="translate(170,109)"/>
<path d="M0 0 C11.22 0 22.44 0 34 0 C34 20.13 34 40.26 34 61 C26.41 61 18.82 61 11 61 C12.4458312 57.38542201 13.91401352 54.11368893 15.71484375 50.69140625 C16.23626953 49.69689453 16.75769531 48.70238281 17.29492188 47.67773438 C17.83697266 46.64970703 18.37902344 45.62167969 18.9375 44.5625 C20.00956281 42.52237089 21.08119032 40.48201297 22.15234375 38.44140625 C22.64976074 37.49410645 23.14717773 36.54680664 23.65966797 35.57080078 C25.1408764 32.72979446 26.58497337 29.87442692 28 27 C25.36 27 22.72 27 20 27 C21.5830293 22.8157115 23.53085782 18.8545053 25.5625 14.875 C28.03205882 10.04855602 28.03205882 10.04855602 30 5 C23.4 5 16.8 5 10 5 C9.67 7.31 9.34 9.62 9 12 C8.58004094 13.72205349 8.12375757 15.43581466 7.625 17.13671875 C7.36203125 18.04357422 7.0990625 18.95042969 6.828125 19.88476562 C6.41820313 21.27211914 6.41820313 21.27211914 6 22.6875 C5.45783783 24.54542839 4.91615265 26.40349606 4.375 28.26171875 C4.13523437 29.07600342 3.89546875 29.89028809 3.6484375 30.72924805 C3.0549869 32.80744234 2.52418425 34.90326301 2 37 C4.97 37 7.94 37 11 37 C11.26305952 45.2425317 10.60614551 52.91191011 9 61 C6.36 61 3.72 61 1 61 C0.0951145 53.59944611 -0.13379996 46.31786906 -0.09765625 38.8671875 C-0.0962413 37.74933868 -0.09482635 36.63148987 -0.09336853 35.47976685 C-0.08781622 31.94481617 -0.07527279 28.40993121 -0.0625 24.875 C-0.05747883 22.46354259 -0.05291701 20.05208417 -0.04882812 17.640625 C-0.03871765 11.7603716 -0.01913316 5.88025848 0 0 Z " fill="#F4F4F4" transform="translate(116,91)"/>
<path d="M0 0 C6.6 0 13.2 0 20 0 C18.875 6.75 18.875 6.75 16.93359375 10.0859375 C16.3293457 11.13974609 16.3293457 11.13974609 15.71289062 12.21484375 C15.29201172 12.92769531 14.87113281 13.64054687 14.4375 14.375 C14.01275391 15.11105469 13.58800781 15.84710938 13.15039062 16.60546875 C12.10843859 18.40839699 11.05533146 20.20487053 10 22 C12.64 22 15.28 22 18 22 C16.35138328 27.61819107 13.81437166 32.66768151 11.1875 37.875 C10.76146484 38.73480469 10.33542969 39.59460938 9.89648438 40.48046875 C4.02275595 52.1923811 4.02275595 52.1923811 1 56 C0.34 56 -0.32 56 -1 56 C-0.33333333 48 0.33333333 40 1 32 C-1.97 32 -4.94 32 -8 32 C-7.38569577 24.8706101 -5.50188332 18.33494834 -3.4375 11.5 C-3.10814453 10.39140625 -2.77878906 9.2828125 -2.43945312 8.140625 C-1.63191044 5.42540902 -0.81672578 2.71246788 0 0 Z " fill="#101010" transform="translate(126,96)"/>
<path d="M0 0 C11.22 0 22.44 0 34 0 C34 20.13 34 40.26 34 61 C26.41 61 18.82 61 11 61 C11.33 60.01 11.66 59.02 12 58 C12.33 58.66 12.66 59.32 13 60 C19.6 60 26.2 60 33 60 C33 40.53 33 21.06 33 1 C26.07 1 19.14 1 12 1 C12 1.99 12 2.98 12 4 C18.27 4 24.54 4 31 4 C30.67 4.99 30.34 5.98 30 7 C30 6.34 30 5.68 30 5 C23.4 5 16.8 5 10 5 C9.67 7.31 9.34 9.62 9 12 C8.58004094 13.72205349 8.12375757 15.43581466 7.625 17.13671875 C7.36203125 18.04357422 7.0990625 18.95042969 6.828125 19.88476562 C6.41820313 21.27211914 6.41820313 21.27211914 6 22.6875 C5.45783783 24.54542839 4.91615265 26.40349606 4.375 28.26171875 C4.13523437 29.07600342 3.89546875 29.89028809 3.6484375 30.72924805 C3.0549869 32.80744234 2.52418425 34.90326301 2 37 C4.97 37 7.94 37 11 37 C11.26305952 45.2425317 10.60614551 52.91191011 9 61 C6.36 61 3.72 61 1 61 C0.0951145 53.59944611 -0.13379996 46.31786906 -0.09765625 38.8671875 C-0.0962413 37.74933868 -0.09482635 36.63148987 -0.09336853 35.47976685 C-0.08781622 31.94481617 -0.07527279 28.40993121 -0.0625 24.875 C-0.05747883 22.46354259 -0.05291701 20.05208417 -0.04882812 17.640625 C-0.03871765 11.7603716 -0.01913316 5.88025848 0 0 Z " fill="#CCCCCC" transform="translate(116,91)"/>
<path d="M0 0 C2.4375 0.5 2.4375 0.5 4.4375 3.5 C4.69628906 6.1796875 4.69628906 6.1796875 4.703125 9.375 C4.70570312 10.52484375 4.70828125 11.6746875 4.7109375 12.859375 C4.70320313 14.06078125 4.69546875 15.2621875 4.6875 16.5 C4.69523437 17.70140625 4.70296875 18.9028125 4.7109375 20.140625 C4.70835938 21.29046875 4.70578125 22.4403125 4.703125 23.625 C4.70086914 24.67945312 4.69861328 25.73390625 4.69628906 26.8203125 C4.4375 29.5 4.4375 29.5 2.4375 32.5 C0 33 0 33 -2.5625 32.5 C-6.67331518 27.86920103 -6.00620285 22.33210818 -5.9375 16.5 C-5.94910156 15.51515625 -5.96070313 14.5303125 -5.97265625 13.515625 C-5.92254812 1.15561915 -5.92254812 1.15561915 0 0 Z " fill="#121212" transform="translate(69.5625,63.5)"/>
<path d="M0 0 C6.93 0 13.86 0 21 0 C21.16167734 4.25151523 21.28078609 8.49691482 21.375 12.75 C21.45041016 14.55984375 21.45041016 14.55984375 21.52734375 16.40625 C21.67307052 25.14985644 21.67307052 25.14985644 19.63769531 27.72070312 C17.9765625 28.828125 17.9765625 28.828125 15 30 C15.33 28.68 15.66 27.36 16 26 C13.36 26 10.72 26 8 26 C9.63601783 21.56305113 11.80278028 17.5144508 14.0625 13.375 C16.84441474 8.33187494 16.84441474 8.33187494 19 3 C12.73 3 6.46 3 0 3 C0 2.01 0 1.02 0 0 Z " fill="#E8E8E8" transform="translate(128,92)"/>
<path d="M0 0 C3.3 0.33 6.6 0.66 10 1 C10.26305952 9.2425317 9.60614551 16.91191011 8 25 C5.36 25 2.72 25 0 25 C0 16.75 0 8.5 0 0 Z " fill="#F3F3F3" transform="translate(117,127)"/>
<path d="M0 0 C6.93 0 13.86 0 21 0 C21 2.64 21 5.28 21 8 C20.01 8.33 19.02 8.66 18 9 C18.33 7.02 18.66 5.04 19 3 C12.73 3 6.46 3 0 3 C0 2.01 0 1.02 0 0 Z " fill="#F7F7F7" transform="translate(128,92)"/>
<path d="M0 0 C0.33 0 0.66 0 1 0 C1.144375 1.051875 1.28875 2.10375 1.4375 3.1875 C1.9179186 6.85345837 1.9179186 6.85345837 2.6875 9.8125 C2.8421875 10.8953125 2.8421875 10.8953125 3 12 C2.34 12.66 1.68 13.32 1 14 C0.06380187 10.84493858 -0.1057123 8.03413498 -0.0625 4.75 C-0.05347656 3.85796875 -0.04445313 2.9659375 -0.03515625 2.046875 C-0.02355469 1.37140625 -0.01195313 0.6959375 0 0 Z " fill="#E0E0E0" transform="translate(116,112)"/>
<path d="M0 0 C0.33 0.66 0.66 1.32 1 2 C1.99 2.33 2.98 2.66 4 3 C3.67 3.99 3.34 4.98 3 6 C1.35 6 -0.3 6 -2 6 C-1.34 4.02 -0.68 2.04 0 0 Z " fill="#272727" transform="translate(69,90)"/>
<path d="M0 0 C1.2065625 0.0309375 1.2065625 0.0309375 2.4375 0.0625 C2.4375 0.7225 2.4375 1.3825 2.4375 2.0625 C0.4575 3.0525 -1.5225 4.0425 -3.5625 5.0625 C-3.5625 0.08689024 -3.5625 0.08689024 0 0 Z " fill="#2D2D2D" transform="translate(69.5625,63.9375)"/>
</svg>
